<svg xmlns="http://www.w3.org/2000/svg" xml:space="preserve" width="2087.006" height="903.72" style="clip-rule:evenodd;fill-rule:evenodd;stroke-linejoin:round;stroke-miterlimit:2" viewBox="663.38 37.57 2087.006 903.72"><defs><path id="c" d="M713.026-304.325H4328.26v1864.754H713.026z"/><path id="b" d="M972.073 151.159h2140.965v684.863H972.073z"/><path id="a" d="M661.302 48.088h769.156v828.468H661.302z"/></defs><path d="m1083.58 1875.72 551.48 318.4a47.66 47.66 0 0 1 23.82 41.27v105.94c0 8.51-2.27 16.7-6.38 23.83 0 0-437.8-252.76-545.3-314.83a47.245 47.245 0 0 1-23.62-40.92v-133.69z" style="fill:#706bc8" transform="translate(-420.199 -1838.15)"/><path d="M1635.26 2604.84a47.228 47.228 0 0 1 23.62 40.91v133.69l-551.47-318.39a47.66 47.66 0 0 1-23.83-41.27v-105.94c0-8.52 2.27-16.71 6.38-23.83 0 0 437.8 252.76 545.3 314.83" style="fill:#55c5e4" transform="translate(-420.199 -1838.15)"/><path d="M790.407 1432.56a35.033 35.033 0 0 0-12.898 12.9c-9.647 16.7-4.036 38.3 12.495 48.13h-.006l-28.825-16.64a47.644 47.644 0 0 1-23.829-41.27v-105.94c0-17.03 9.083-32.76 23.829-41.27l498.417-287.73.24-.14a34.962 34.962 0 0 0 12.65-12.756c9.65-16.708 4.04-38.3-12.49-48.137h.01l28.82 16.642a47.648 47.648 0 0 1 23.83 41.273v105.938c0 17.03-9.08 32.76-23.83 41.27l-29.63 17.11.4-.26z" style="fill:#84ddea" transform="translate(-73.964 -854.054)"/><path d="M790.407 1686.24a35.08 35.08 0 0 0-12.898 12.89c-9.647 16.71-4.036 38.3 12.495 48.14h-.006l-28.825-16.64a47.656 47.656 0 0 1-23.829-41.27v-105.94c0-17.03 9.083-32.76 23.829-41.27l498.417-287.73.24-.14c5.09-2.99 9.5-7.29 12.65-12.76 9.65-16.71 4.04-38.3-12.49-48.14h.01l28.82 16.65a47.636 47.636 0 0 1 23.83 41.27v105.94c0 17.02-9.08 32.76-23.83 41.27l-29.63 17.1.4-.25z" style="fill:#997bc8" transform="translate(-73.964 -854.054)"/><g aria-label="Helix" style="font-size:4px;-inkscape-font-specification:&quot;sans-serif, Normal&quot;;white-space:pre;shape-inside:url(#b);display:inline;fill:#f0f6fc;stroke:#f0f6fc;stroke-width:2.66687;stroke-opacity:1;fill-opacity:1" transform="matrix(1.31139 0 0 1.31139 142.024 48.21)"><path d="M1242.072 515.108h-60.4v-123.2h-113.2v123.2h-60.4v-285.6h60.4v112h113.2v-112h60.4zM1399.272 292.708q30.4 0 52 11.6 22 11.6 34 33.6t12 54v28.8h-140.8q.8 25.2 14.8 39.6 14.4 14.4 39.6 14.4 21.2 0 38.4-4 17.2-4.4 35.6-13.2v46q-16 8-34 11.6-17.6 4-42.8 4-32.8 0-58-12-25.2-12.4-39.6-37.2-14.4-24.8-14.4-62.4 0-38.4 12.8-63.6 13.2-25.6 36.4-38.4 23.2-12.8 54-12.8zm.4 42.4q-17.2 0-28.8 11.2-11.2 11.2-13.2 34.8h83.6q0-13.2-4.8-23.6-4.4-10.4-13.6-16.4-9.2-6-23.2-6zM1605.272 515.108h-59.6v-304h59.6zM1727.272 296.708v218.4h-59.6v-218.4zm-29.6-85.6q13.2 0 22.8 6.4 9.6 6 9.6 22.8 0 16.4-9.6 22.8-9.6 6.4-22.8 6.4-13.6 0-23.2-6.4-9.2-6.4-9.2-22.8 0-16.8 9.2-22.8 9.6-6.4 23.2-6.4zM1834.472 403.508l-70.4-106.8h67.6l42.4 69.6 42.8-69.6h67.6l-71.2 106.8 74.4 111.6h-67.6l-46-74.8-46 74.8h-67.6z" style="font-size:400px;-inkscape-font-specification:&quot;sans-serif, @wght=700&quot;;font-variation-settings:&quot;wght&quot;700;stroke:#f0f6fc;stroke-opacity:1;fill:#f0f6fc;fill-opacity:1"/></g></svg>